<svg xmlns="http://www.w3.org/2000/svg">
   <rect width="100" height="100" fill="#3A3A3A" />

   <rect width="90" height="70" fill="#3A3A3A"
      stroke="#FFFFFF" x="5" y="15" stroke-width="1"/>

   <rect width="35" height="60" fill="#3A3A3A"
      stroke="#848484" x="10" y="20" stroke-width="1"/>
   <rect width="35" height="60" fill="#3A3A3A"
      stroke="#848484" x="55" y="20" stroke-width="1"/>

   <rect width="29.5" height="10" fill="transparent"
      stroke="#AAAAAA" x="12.5" y="22" stroke-width="1"/>
   <rect width="29.5" height="10" fill="transparent"
      stroke="#AAAAAA" x="12.5" y="35" stroke-width="1"/>
   <rect width="29.5" height="10" fill="transparent"
      stroke="#AAAAAA" x="12.5" y="48" stroke-width="1"/>

    <rect width="29.5" height="10" fill="transparent"
      stroke="#AAAAAA" x="57.5" y="22" stroke-width="1"/>

   <line x1="15" x2="30" y1="25" y2="25" stroke="#FFFFFF" stroke-width="0.5"/>
   <line x1="15" x2="35" y1="27" y2="27" stroke="#ABABAB" stroke-width="0.5"/>
   <line x1="15" x2="35" y1="29" y2="29" stroke="#ABABAB" stroke-width="0.5"/>
   <circle r="2" cx="39" cy="25" fill="#FFFFFF" />

   <line x1="15" x2="30" y1="38" y2="38" stroke="#FFFFFF" stroke-width="0.5"/>
   <line x1="15" x2="35" y1="40" y2="40" stroke="#ABABAB" stroke-width="0.5"/>
   <line x1="15" x2="35" y1="42" y2="42" stroke="#ABABAB" stroke-width="0.5"/>
   <circle r="2" cx="39" cy="38" fill="#FFFFFF" />

   <line x1="15" x2="30" y1="51" y2="51" stroke="#FFFFFF" stroke-width="0.5"/>
   <line x1="15" x2="35" y1="53" y2="53" stroke="#ABABAB" stroke-width="0.5"/>
   <line x1="15" x2="35" y1="55" y2="55" stroke="#ABABAB" stroke-width="0.5"/>
   <circle r="2" cx="39" cy="51" fill="#FFFFFF" />

   <line x1="60" x2="75" y1="25" y2="25" stroke="#FFFFFF" stroke-width="0.5"/>
   <line x1="60" x2="80" y1="27" y2="27" stroke="#ABABAB" stroke-width="0.5"/>
   <line x1="60" x2="80" y1="29" y2="29" stroke="#ABABAB" stroke-width="0.5"/>
   <circle r="2" cx="84" cy="25" fill="#FFFFFF" />
   
</svg>